<svg viewBox="0 0 287 182" fill="none" xmlns="http://www.w3.org/2000/svg">
<path fill-rule="evenodd" clip-rule="evenodd" d="M194.174 44.9881C203.541 44.9881 211.005 37.5109 211.959 27.2104L212 26.7825H208.646V27.151C208.165 35.3117 201.691 41.9509 194.197 41.9509C184.28 41.9509 177.36 33.9447 177.36 22.4851C177.36 11.0256 184.257 3.03725 194.174 3.03725C201.38 3.03725 206.919 7.45938 207.949 14.0569L207.996 14.3779H211.292L211.262 13.9559C211.262 13.8132 209.366 0 194.174 0C182.091 0 174 9.04042 174 22.497C174 35.9536 182.091 45 194.174 45V44.9881ZM10.8629 30.4655H30.1955L35.4537 44H39L22.3024 1H18.9897L2 44H5.56387L10.8629 30.4655ZM20.6569 5L29 28H12L20.6569 5ZM61.0133 44L45.3466 6.24492V44H42V1H46.3476L62.577 39.8374L78.6346 1H83V44H79.6297V6.25086L64.1407 44H61.0133ZM119.977 40.9732H94.3002V23.1868H118.163V20.1541H94.3002V4.02683H119.672V1H91V44H120L119.977 40.9732ZM144.165 24.7865H129.414V44H126V1H144.117C153.179 1 157.97 4.92477 157.97 12.2986C157.97 17.6565 155.041 21.6823 150.184 23.1274C155.688 24.4237 156.808 28.6339 157.149 32.2614C157.281 33.635 157.317 35.0503 157.317 36.424L157.318 36.4504C157.365 39.2772 157.41 41.9469 158.515 43.3697L159 44H155.047L154.933 43.7978C153.889 41.9199 153.89 39.3501 153.891 36.6182L153.891 36.3526C153.934 34.8467 153.886 33.3394 153.748 31.8392C153.31 28.3544 151.819 24.7865 144.165 24.7865ZM129 4H143.654C146.759 4 154 4.83875 154 12.5505C154 20.7751 147.515 22 143.654 22H129V4ZM165 1H167.974L168 44H165V1ZM241.182 30.4536H221.847L216.553 44H213L229.969 1H233.294L250 43.9881H246.441L241.182 30.4536ZM231.654 5L240 28H223L231.654 5ZM282.385 44L256.333 5.67404V44H253V1H256.791L282.655 39.0584V1H286V44H282.385ZM3 105H10.8185L12.5384 96.9487H22.4499L24.199 105H32L22.1409 67H12.8591L3 105ZM17.564 74H17.4582L14 91H21L17.564 74ZM35 67V105H47.0038C57.0995 105 60 98.92 60 85.4716C60 74.3269 58.1037 67.0238 47.5059 67.0238L35 67ZM45.4629 100C50.9186 100 52 96.628 52 86.2C52 77.5 51.3135 73.036 45.3171 73H42V100H45.4629ZM75.3972 95.0903L70.1112 67H62L70.6339 105H80.3485L89 67H81.1473L75.5617 95.0903H75.3972ZM113.453 67V73.2819H99.7378V82.1881H112.66V88.4819H99.7378V98.7003H114V105H92V67H113.453ZM143.477 76.7791C143.477 70.2953 139.608 67 133.281 67H119V105H126.743V88.8975H130.881C133.994 88.8975 135.326 90.6787 135.428 93.6831L135.65 100.974C135.71 102.447 135.866 103.896 136.603 104.964H145V104.638C143.537 103.896 143.321 101.812 143.267 97.8216C143.171 89.7941 142.349 86.9203 137.095 86.2375V86.1188C141.455 85.2222 143.483 81.82 143.483 76.7672L143.477 76.7791ZM127 84H130.216L130.222 83.9881C133.918 83.9881 136.006 82.3699 136 78.271C136 74.7848 134.14 73 130.636 73H127V84ZM161.806 105V73.2838H170V67H146V73.2838H154.223V105H161.806ZM183 67V105H175V67H183ZM187 93.5245V95.0509C187 102.008 190.374 106 198.945 106C207.174 106 212 102.419 212 94.4873C212 89.9198 210.53 87.0196 204.852 84.5538L198.974 82.0352C195.764 80.6614 195.083 79.2348 195.083 76.9393C195.083 74.6438 195.976 72.5773 199.415 72.5773C202.313 72.5773 203.53 74.6027 203.53 78.1487H210.795V77.0978C210.795 69.8826 205.91 67 199.174 67C192.014 67 187.547 70.7339 187.547 78.0372C187.547 84.2896 190.656 87.0783 197.375 89.3914C202.389 91.1526 204.129 92.3973 204.129 95.8141C204.129 98.9609 201.913 100.417 199.597 100.417C195.588 100.417 194.595 98.1683 194.595 94.634V93.5421L187 93.5245ZM225 67V105H217V67H225ZM248.917 93.0116L239.761 67.0356H231V105H237.93V78.3953H238.03L247.351 104.964H256V67H249.017V92.976L248.917 93.0116ZM274.574 90.1456V84.4416L287 84.5018V105.26H281.357V101.692H281.268C279.457 104.712 276.849 106 273.285 106C263.853 106 262 98.87 262 85.5427C262 72.6185 264.964 66 274.764 66C283.151 66 286.572 70.3622 286.572 78.1841H279.201C279.201 75.3261 277.912 71.716 274.847 71.716C271.111 71.716 269.615 75.5487 269.615 85.1757C269.615 94.4116 270.482 100.218 274.883 100.218C276.707 100.218 279.635 98.2503 279.635 94.0987V90.1456H274.574ZM23.4676 130L3 181H6.36009L12.8559 164.643H37.2327L43.6517 181H47L26.9222 130H23.4676ZM25.1334 133L14 162H36L25.2843 133H25.1334ZM105.681 130L92.6866 177.635H92.5395L78.9038 130H74.9902L61.5782 177.635H61.4252L48.2074 130H45L59.6361 181H63.1142L76.8323 132.726H76.9676L90.9152 181H94.4463L109 130H105.681ZM105 181L125.461 130H128.917L149 181H145.639L139.242 164.643H114.847L108.349 181H105ZM116 162L127.148 133H127.287L138 162H116ZM181.402 156.21V156.357C188.969 157.227 190.761 161.987 191.291 167.274C191.462 168.977 191.486 170.725 191.509 172.403V172.403V172.404C191.558 175.934 191.602 179.152 193 180.988H189.505C188.29 178.78 188.323 175.657 188.357 172.417V172.416C188.377 170.501 188.398 168.545 188.162 166.712C187.525 161.78 185.097 157.783 176.216 157.783H158.141V181H155V130H176.216C185.097 130 192.293 133.3 192.293 143.152C192.293 150.006 188.162 155.08 181.402 156.21ZM159 154.983V133H177.051C183.867 133 190 135.867 190 143.468C190 151.551 184.444 155 177.051 155L159 154.983ZM201 130.012H217.602V130C235.684 130 241 142.493 241 155.441C241 169.861 233.698 181 217.449 181H201V130.012ZM217.711 178H204V132H217.091C224.649 132 238 133.88 238 154.919C237.976 172.724 227.197 177.988 217.711 177.988V178ZM267.559 152.921C267.959 153.004 268.361 153.087 268.762 153.171C277.387 154.994 285.988 157.229 286 167.49C286 178.169 275.965 182 268.277 182C256.486 182 246.861 177.016 247.002 163.749H250.12C249.459 174.99 258.312 179.245 268.259 179.245C274.333 179.245 282.887 176.454 282.887 167.49C282.887 159.112 274.876 157.407 266.67 155.66C266.33 155.588 265.99 155.515 265.649 155.442C257.101 153.608 248.482 151.498 248.482 141.697C248.482 131.807 257.487 128 265.45 128C275.983 128 284.262 132.59 284.76 143.944H281.606C281.272 135.124 274.783 130.719 265.421 130.719C259.722 130.719 251.595 133.199 251.595 141.697C251.595 149.608 259.428 151.234 267.559 152.921ZM286 54H0V55H286V54ZM0 116H286V117H0V116Z" fill="white"/>
</svg>
