<svg viewBox="0 0 236 147" fill="none" xmlns="http://www.w3.org/2000/svg">
<path fill-rule="evenodd" clip-rule="evenodd" d="M145.505 93H191.435V62.0207H228.826V38.5171H191.435V25.0112H236V0H165.567V72.7747L136.178 0.784891L135.859 0H110.93L86.9344 58.5988L63.3358 0.784891L63.0117 0H38.0828L0 93H28.3202L33.3805 79.7717H67.6172L72.6582 93H101.167L106.208 79.7717H140.459L145.505 93ZM188.904 90.4922H147.256L142.191 77.2687H104.457L99.4158 90.4922H74.3949L69.3492 77.2687H31.6147L26.5689 90.4922H3.75893L39.7905 2.50304H61.2895L86.9296 65.2752L112.637 2.50304H134.151L168.097 85.668V2.50304H233.465V22.4938H188.904V41.0201H226.315V59.5177H188.904V90.4922ZM135.162 58.7711H111.457L123.377 27.3707L135.162 58.7711ZM131.548 56.2681H115.138L123.387 34.5304L131.548 56.2681ZM62.3393 58.7711H38.6343L50.5545 27.3707L62.3393 58.7711ZM58.6964 56.2681H42.2868L50.54 34.5304L58.6964 56.2681Z" fill="white"/>
<rect x="188" y="2" width="3" height="92" fill="white"/>
<rect x="172" y="1" width="3" height="92" fill="white"/>
<rect x="180" y="1" width="3" height="92" fill="white"/>
<path d="M7.79297 91.8694L41.4458 10.3366L43.7894 11.2974L10.1365 92.8302L7.79297 91.8694Z" fill="white"/>
<path d="M20.3728 92L18 91.0918L45.6272 20L48 20.9082L20.3728 92Z" fill="white"/>
<rect x="30" y="63" width="33" height="3" fill="white"/>
<rect x="27" y="70" width="39" height="3" fill="white"/>
<path d="M37.7432 1.71509L40.1017 0.804776L75.7421 92.5221L73.3836 93.4325L37.7432 1.71509Z" fill="white"/>
<path d="M45.6445 1.53955L48.0102 0.647728L79.3901 83.3233L77.0244 84.2151L45.6445 1.53955Z" fill="white"/>
<path d="M53.5527 1.53967L55.9184 0.64785L83.724 73.9064L81.3583 74.7982L53.5527 1.53967Z" fill="white"/>
<rect x="190" y="8" width="45" height="3" fill="white"/>
<rect x="191" y="16" width="43" height="3" fill="white"/>
<rect x="191" y="46" width="35" height="3" fill="white"/>
<rect x="191" y="53" width="35" height="3" fill="white"/>
<rect x="165" y="1" width="3" height="92" fill="white"/>
<path d="M82.4033 91.9116L115.245 10.5338L117.591 11.4744L84.7499 92.8522L82.4033 91.9116Z" fill="white"/>
<path d="M91.6211 91.6787L119.023 20.7221L121.388 21.6292L93.9861 92.5858L91.6211 91.6787Z" fill="white"/>
<rect x="104" y="63" width="33" height="3" fill="white"/>
<rect x="101" y="70" width="38" height="3" fill="white"/>
<path d="M111.495 1.87366L113.868 1.00203L147.508 91.9738L145.134 92.8454L111.495 1.87366Z" fill="white"/>
<path d="M119.4 1.68982L121.773 0.817366L155.587 92.1617L153.214 93.0342L119.4 1.68982Z" fill="white"/>
<path d="M127.308 1.70422L129.673 0.812401L164.343 92.1568L161.978 93.0486L127.308 1.70422Z" fill="white"/>
<path d="M73.5439 91.9252L110.501 0.991968L112.845 1.93827L75.8882 92.8715L73.5439 91.9252Z" fill="white"/>
<path d="M32 109V147H29.1108V129.71H2.88429V147H0V109H2.88429V126.979H29.1108V109H32Z" fill="white"/>
<path fill-rule="evenodd" clip-rule="evenodd" d="M85 147L67.5623 109H64.4377L47 147H50.2265L54.0789 138.428H77.9502L81.8317 147H85ZM76.6742 135.682H55.3258L66 112.105L76.6742 135.682Z" fill="white"/>
<path d="M105.258 147L93 109H96.1265L106.868 142.716L118.051 109H120.881L132.064 142.716L142.859 109H146L133.747 147H130.572L119.49 113.633L108.453 147H105.258Z" fill="white"/>
<path fill-rule="evenodd" clip-rule="evenodd" d="M193 147L175.544 109H172.427L155 147H158.21L162.06 138.428H185.955L189.834 147H193ZM184.655 135.682H163.321L173.988 112.105L184.655 135.682Z" fill="white"/>
<path d="M212 109V147H209V109H212Z" fill="white"/>
<path d="M234 109V147H231V109H234Z" fill="white"/>
</svg>
