<svg viewBox="0 0 20 20" xmlns="http://www.w3.org/2000/svg"><path d="m13.8888889 12.2222222h-.8777778l-.3111111-.3c1.0888889-1.2666666 1.7444444-2.91111109 1.7444444-4.69999998 0-3.98888889-3.2333333-7.22222222-7.22222218-7.22222222-3.98888889 0-7.22222222 3.23333333-7.22222222 7.22222222 0 3.98888888 3.23333333 7.22222218 7.22222222 7.22222218 1.78888889 0 3.43333338-.6555555 4.69999998-1.7444444l.3.3111111v.8777778l5.5555556 5.5444444 1.6555555-1.6555555zm-6.66666668 0c-2.76666666 0-5-2.23333331-5-4.99999998 0-2.76666666 2.23333334-5 5-5 2.76666667 0 4.99999998 2.23333334 4.99999998 5 0 2.76666667-2.23333331 4.99999998-4.99999998 4.99999998z" fill="currentColor"/></svg>
