<svg viewBox="0 0 18 17" xmlns="http://www.w3.org/2000/svg"><path d="m78 10.2763933v6.7236067h-3.9308105v-6.2727732c0-1.57551776-.5679479-2.65095133-1.9906191-2.65095133-1.0864869 0-1.7321137.7241118-2.016597 1.4254925-.1034022.25054723-.1303988.59883823-.1303988.95015993v6.5480721h-3.9315746s.0527198-10.62476848 0-11.72470113h3.9315746v1.66139081c-.0078952.01288095-.0188467.02576191-.0257232.0383903h.0257232v-.0383903c.5223592-.79710389 1.4545069-1.93668968 3.5426704-1.93668968 2.586837 0 4.525755 1.67528203 4.525755 5.2763933zm-15.9879053-10.2763933c-1.21661 0-2.0120947.86392819-2.0120947 1.99962601 0 1.11126347.7729079 2.00037399 1.9653286 2.00037399h.0234982c1.2401083 0 2.0111732-.88911052 2.0111732-2.00037399-.0232679-1.13569782-.7710649-1.99962601-1.9879053-1.99962601zm-2.0120947 17h4v-11h-4z" fill="currentColor" fill-rule="evenodd" transform="translate(-60)"/></svg>
