<svg fill="none" viewBox="0 0 260 260" xmlns="http://www.w3.org/2000/svg"><g fill="currentColor"><path d="m112.71 54.4448c-.978-.4219-2.059-.5473-3.108-.3606-1.048.1866-2.019.6771-2.792 1.4106l-43 40.72h-38.36c-1.4454 0-2.8317.5742-3.8537 1.5963-1.0221 1.0221-1.5963 2.4079-1.5963 3.8539v57.2c0 .715.141 1.423.415 2.084.2741.661.6757 1.261 1.1819 1.766s1.1071.906 1.7682 1.179c.6612.272 1.3697.412 2.0849.411h38.35l43 40.72c.775.737 1.75 1.23 2.803 1.416s2.138.058 3.118-.369c.981-.427 1.814-1.133 2.395-2.031.582-.898.886-1.947.874-3.016v-141.5702c.001-1.0638-.309-2.1047-.892-2.9948-.583-.89-1.413-1.5904-2.388-2.0152z"/><path d="m205 130.265 33.21-33.2602c.865-.8285 1.557-1.8215 2.033-2.9207.477-1.0992.73-2.2826.743-3.4806.013-1.1981-.213-2.3867-.665-3.4962-.452-1.1096-1.121-2.1177-1.968-2.9652-.847-.8476-1.855-1.5175-2.964-1.9705s-2.297-.6799-3.495-.6676c-1.199.0124-2.382.2638-3.482.7396-1.099.4758-2.093 1.1664-2.922 2.0312l-33.24 33.2602-33.25-33.2402c-1.714-1.5406-3.953-2.3653-6.256-2.3042-2.304.0611-4.496 1.0035-6.125 2.6329-1.63 1.6293-2.572 3.8216-2.633 6.1251s.763 4.5427 2.304 6.2562l33.23 33.2402-33.23 33.23c-1.691 1.685-2.643 3.973-2.646 6.361-.004 2.387.941 4.678 2.626 6.369s3.974 2.643 6.361 2.646c2.387.004 4.678-.941 6.369-2.626l33.25-33.22 33.24 33.24c.829.865 1.823 1.555 2.922 2.031 1.1.476 2.283.727 3.482.74 1.198.012 2.386-.215 3.495-.668s2.117-1.123 2.964-1.97c.847-.848 1.516-1.856 1.968-2.966.452-1.109.678-2.298.665-3.496s-.266-2.381-.743-3.48c-.476-1.1-1.168-2.093-2.033-2.921z"/></g></svg>
