<svg viewBox="0 0 18 18" xmlns="http://www.w3.org/2000/svg"><g fill="currentColor"><path d="m17.9542516 5.29206538c-.0421764-.95641226-.1968692-1.61393711-.4184673-2.18369121-.2286045-.60478001-.5803039-1.14623875-1.041085-1.59635549-.4502026-.45712193-.9953366-.81232543-1.5932255-1.03731514-.57316-.22155578-1.2273758-.37621905-2.1839705-.41838745-.9637386-.04573966-1.2696896-.05631609-3.71400004-.05631609-2.44431046 0-2.75026142.01057643-3.7104281.05274484-.95659476.04216841-1.61424506.19696898-2.18397054.41838745-.60503274.22856096-1.1465948.58019322-1.59679743 1.04088639-.45720915.45011674-.81234309.99514673-1.03751307 1.59292156-.22159806.57318803-.37629084 1.22714163-.41846729 2.18355389-.04574838.96355475-.05632683 1.26944735-.05632683 3.71329149 0 2.44384418.01057845 2.74973678.0527549 3.70972028.04217646.9564122.19700657 1.6139371.41860463 2.1836912.22860457.60478.58373851 1.1462387 1.04094766 1.5963555.45020263.4571219.99533662.8123254 1.5932255 1.0373151.57329741.2215558 1.22737579.3762191 2.18410788.4183875.96002934.0423057 1.26611764.0527448 3.7104281.0527448 2.44431043 0 2.75026143-.0104391 3.71042813-.0527448.9565947-.0421684 1.614245-.1968317 2.1839705-.4183875 1.2099282-.4676983 2.1665229-1.4241106 2.6343105-2.6336706.2214607-.5731881.3762908-1.227279.4184673-2.1836912.0421765-.9599835.0527549-1.2658761.0527549-3.70972028 0-2.44384414-.0035719-2.74973674-.0457484-3.70972024zm-1.6212516 7.34911402c-.0387418.8790806-.1864281 1.3537842-.3095229 1.6702532-.3025163.7841674-.9249967 1.406529-1.7093137 1.7089877-.3165294.1230713-.7947581.2707293-1.6705719.3093265-.9495882.0423057-1.2343823.0527448-3.63651631.0527448-2.402134 0-2.6905-.0104391-3.63665364-.0527448-.87924837-.0385972-1.35404249-.1862552-1.6705719-.3093265-.39030387-.1442242-.74557514-.3727851-1.03394114-.6716725-.29894444-.2918823-.52754902-.6435145-.67180069-1.0337439-.12309477-.3164691-.27078102-.7947439-.30938555-1.6702532-.04231379-.9494071-.0527549-1.2342842-.0527549-3.63595989 0-2.40167574.01044111-2.68998672.0527549-3.63582255.03860453-.87908063.18629078-1.35378417.30938555-1.6702532.14425167-.39036672.37285625-.7454329.67537262-1.0338812.29180059-.29888741.64349993-.52744838 1.03394114-.67153521.31652941-.12307129.79489546-.27072937 1.6705719-.30946385.94958823-.0421684 1.23451964-.05274483 3.6365163-.05274483 2.40570592 0 2.69050002.01057643 3.63665362.05274483.8792484.03873448 1.3540425.18639256 1.6705719.30946385.3903039.14408683.7455752.3726478 1.0339412.67153521.2989444.29188223.527549.64351448.6718006 1.0338812.1230948.31646903.2707811.7946065.3095229 1.6702532.0421765.94940707.0527549 1.23414681.0527549 3.63582255 0 2.40167569-.0105784 2.68298149-.0527549 3.63238859z"/><path d="m9 4.5c-2.48433047 0-4.5 2.0155359-4.5 4.5s2.01566953 4.5 4.5 4.5c2.4844641 0 4.5-2.0155359 4.5-4.5s-2.0155359-4.5-4.5-4.5zm0 7.4190381c-1.61170689 0-2.91903813-1.3071976-2.91903813-2.9190381 0-1.61184052 1.30733124-2.91903813 2.91903813-2.91903813 1.6118405 0 2.9190381 1.30719761 2.9190381 2.91903813 0 1.6118405-1.3071976 2.9190381-2.9190381 2.9190381z"/><path d="m15 4c0 .5522331-.4477384 1-1.0000636 1-.552198 0-.9999364-.4477669-.9999364-1 0-.55236034.4477384-1 .9999364-1 .5523252 0 1.0000636.44763966 1.0000636 1z"/></g></svg>
