<svg viewBox="0 0 18 15" xmlns="http://www.w3.org/2000/svg"><path d="m99.660928 17c6.792696 0 10.50732-5.7703382 10.50732-10.77405415 0-.1638965-.00324-.32712856-.010512-.48947469.721008-.53450932 1.347768-1.20139091 1.842264-1.96070422-.66168.30143668-1.373832.50453546-2.12076.59615508.762408-.46872924 1.34784-1.21054549 1.623888-2.09470068-.713736.43373512-1.50372.7492728-2.344896.91914931-.67392-.73598389-1.63368-1.19637065-2.69568-1.19637065-2.039616 0-3.693528 1.69588585-3.693528 3.78637838 0 .29722852.032472.5861884.095832.86340974-3.069144-.15813798-5.790816-1.66509989-7.611984-3.9562549-.317448.55938911-.500184 1.20965956-.500184 1.90319279 0 1.31375598.652032 2.47350832 1.6434 3.15198078-.605736-.01912126-1.174896-.18980987-1.672632-.47367566-.000792.01579903-.000792.03167189-.000792.04828302 0 1.83409048 1.273104 3.36519385 2.9628 3.71240345-.310176.0865256-.636552.1331844-.973512.1331844-.23796 0-.469368-.0242153-.694224-.0682902.470088 1.5043779 1.833336 2.5991623 3.449952 2.6300221-1.264248 1.0157153-2.856456 1.6209512-4.586688 1.6209512-.298008 0-.591912-.0174233-.880992-.0524174 1.634472 1.0739651 3.575016 1.7008323 5.660928 1.7008323" fill="currentColor" fill-rule="evenodd" transform="translate(-94 -2)"/></svg>
