<svg viewBox="0 0 10 18" xmlns="http://www.w3.org/2000/svg"><path d="m9.62428441.00351114-2.39885506-.00351114c-2.69471304 0-4.43666714 1.7389529-4.43666714 4.42989415v2.04278394h-2.41208448c-.20758166 0-.37667773.16361934-.37667773.3665635v2.95989493c0 .20200788.16909607.36656348.37667773.36656348h2.41208448v7.4677365c0 .2020079.16909607.3665635.37763987.3665635h3.14571607c.2085438 0 .37763987-.1645556.37763987-.3665635v-7.4677365h2.81979122c.2085438 0 .37691826-.1645556.37691826-.36656348l.00168375-2.95989493c0-.09690759-.04040987-.19006996-.11088661-.25959062-.07047674-.06858436-.16620965-.10697288-.26675326-.10697288h-2.82075336v-1.73169653c0-.83214128.20397364-1.25464902 1.31740992-1.25464902l1.61615433-.0009363c.2085438 0 .37667773-.16455565.37667773-.3665635v-2.74758771c0-.20317824-.16813393-.36679758-.37571559-.36773389z" fill="currentColor" fill-rule="evenodd"/></svg>
