<svg fill="none" viewBox="0 0 260 260" xmlns="http://www.w3.org/2000/svg"><g fill="currentColor"><path d="m161.29 98.3765c-.633-.9495-1.448-1.7648-2.397-2.3996-.948-.6347-2.013-1.0763-3.132-1.2996-2.261-.451-4.608.0145-6.526 1.2942-1.917 1.2796-3.248 3.2686-3.699 5.5295-.451 2.261.014 4.608 1.294 6.525 4.4 6.564 6.75 14.288 6.75 22.19 0 7.903-2.35 15.627-6.75 22.19-.635.95-1.078 2.015-1.302 3.136-.224 1.12-.225 2.274-.003 3.394.222 1.121.663 2.187 1.297 3.138.634.95 1.449 1.767 2.398 2.402.95.636 2.015 1.078 3.135 1.302 1.121.224 2.274.225 3.395.003s2.187-.662 3.138-1.296c.95-.634 1.767-1.449 2.402-2.399 6.317-9.422 9.689-20.51 9.689-31.855 0-11.344-3.372-22.432-9.689-31.8545z"/><path d="m219.16 59.8065-3.9-5.85c-.626-.9644-1.438-1.7948-2.387-2.4433-.95-.6484-2.019-1.1018-3.145-1.3341-1.127-.2323-2.288-.2387-3.416-.0189-1.129.2198-2.203.6614-3.16 1.2993s-1.777 1.4593-2.414 2.4166c-.637.9574-1.078 2.0317-1.297 3.1606-.219 1.129-.211 2.2901.022 3.4161s.688 2.1946 1.337 3.1437l3.9 5.85c12.037 17.9794 18.462 39.1285 18.462 60.7645 0 21.637-6.425 42.786-18.462 60.765l-3.89 5.84c-.649.95-1.104 2.018-1.337 3.144s-.241 2.287-.022 3.416.66 2.203 1.297 3.161c.637.957 1.457 1.779 2.414 2.416.957.638 2.031 1.08 3.16 1.3 1.128.22 2.289.213 3.416-.019 1.126-.232 2.195-.686 3.145-1.334.949-.649 1.761-1.479 2.387-2.444l3.89-5.83c13.948-20.832 21.394-45.339 21.394-70.41s-7.446-49.5766-21.394-70.4095z"/><path d="m190.23 79.0865-3.9-5.85c-1.278-1.9189-3.266-3.2513-5.527-3.7042s-4.609.0108-6.528 1.2892c-1.919 1.2783-3.251 3.2665-3.704 5.5273-.453 2.2607.011 4.6088 1.289 6.5277l3.9 5.85c8.223 12.2785 12.613 26.7225 12.613 41.4995 0 14.778-4.39 29.222-12.613 41.5l-3.9 5.85c-1.278 1.919-1.742 4.267-1.289 6.528s1.785 4.249 3.704 5.527c1.919 1.279 4.267 1.743 6.528 1.29s4.249-1.786 5.527-3.705l3.9-5.85c10.13-15.131 15.538-32.93 15.538-51.14 0-18.209-5.408-36.0079-15.538-51.1395z"/><path d="m112.71 54.3965c-.974-.4258-2.051-.5579-3.099-.3803s-2.022.6573-2.801 1.3803l-42.9999 40.72h-38.36c-.719 0-1.431.1422-2.0949.4186-.6638.2764-1.2664.6814-1.773 1.1918-.5066.5103-.9072 1.1158-1.1787 1.7817-.2716.6654-.4086 1.3784-.4034 2.0974v57.2c0 1.446.5742 2.832 1.5963 3.854s2.4083 1.596 3.8537 1.596h38.35l42.9999 40.72c.777.733 1.751 1.221 2.803 1.405 1.051.184 2.134.055 3.112-.371.979-.426 1.811-1.131 2.393-2.025.583-.895.889-1.941.882-3.009v-141.5795c0-1.0624-.31-2.1017-.893-2.9901-.583-.8883-1.412-1.5869-2.387-2.0099z"/></g></svg>
