<svg viewBox="0 0 309 309" xmlns="http://www.w3.org/2000/svg"><g fill="none" fill-rule="evenodd"><path d="m0 0h309v309h-309z" fill="#fff"/><g fill="#6ea89b" fill-rule="nonzero" transform="translate(12 76)"><path d="m1.42534142 59.9002578c1.51265415-4.1021426 8.92465948-20.2068503 13.91641818-26.2840986 0 0 1.815185-2.278968 6.0506166-2.7347617 4.8404933-.6077248 16.9417265-1.6712432 20.5720964-2.1270368 14.0676836-1.6712433 40.3878658-6.0772483 56.8757961-8.2042851 23.1436083-2.8866929 33.4296563 5.925317 34.9423113 18.535607 2.874042 22.9416121-23.143609 58.6454454-54.4555499 62.4437254-9.2271903 1.063519-8.9246595.303863-11.0423753.607725-.6050616 0-1.0588579.303862-1.3613887 1.21545-.6050617 1.823174-5.2942895 12.458358-9.3784557 23.853199-6.6556783 14.129602-10.5885791 14.737327-18.1518498 15.648914-3.63037.455794-31.61447175.455794-32.82459507-9.723597-.15126541-1.671243.30253083-3.038624 2.72277747-5.469524 11.647437-11.242909 61.4137585-68.6729044 61.1112276-70.7999413 0-.1519312-.3025308-.3038624-.756327-.3038624-5.5968204.759656-46.8922787 11.090978-60.05236977 12.7622212-7.56327075.9115873-9.0759249-.3038624-9.52972114-3.4944177-.15126542-.4557936-.15126542-2.1270369 1.36138873-5.925317zm69.43082548 34.1845212c.1512654 1.5193121 2.571512 1.2154497 3.4791045 1.2154497 16.7904611-2.1270369 26.9252436-17.6240199 25.5638552-28.8669291-.9075925-7.1407666-6.5044129-12.61029-18.1518498-11.5467716-1.3613888.1519312-2.8740429.759656-2.7227775 2.1270369.1512654.759656.6050617 1.8231744 1.0588579 4.5579361.7563271 5.6214547-7.4120053 27.6514794-8.9246595 31.2978284-.3025308.4557936-.4537962.9115872-.3025308 1.2154496z"/><path d="m177.765812 85.2477677s.453181-.4510115 1.208484-.6013486c.906364-.1503372 1.661667.7516858 1.812727 1.5033716 0 .3006743 0 .7516858-.15106 1.0523601-6.646666 10.8242755-23.414392 28.5640602-39.879996 30.5184432-13.595453 1.653709-20.54424-4.20944-21.601665-12.928996-2.114848-17.2887729 17.674089-45.7024961 49.245753-49.6112622 8.006211-.902023 11.933787 1.6537087 12.538029 6.0134864 1.057424 8.7195552-11.480605 24.3546198-33.686512 33.5251866 1.661667 2.856406 5.287121 4.5101147 11.782726 3.7584289 6.193485-.9020229 13.444393-5.712812 18.731514-13.22967zm-19.335756-22.0995625c-3.776515.4510115-13.746514 17.1384362-12.538029 27.5117002l.151061 1.0523602c9.063635-6.3141607 15.710301-20.2955166 15.106059-26.0083286-.302122-1.6537088-1.057425-2.7060689-2.719091-2.5557318z"/><path d="m206.390707 88.2700615c.301266 2.1475501 1.807595 3.3747216 5.121521 2.9145323 4.368356-.6135857 10.694941-6.7494432 14.912664-12.8853006 0 0 .451899-.4601893 1.205064-.6135857.903798-.1533965 1.656962.7669821 1.807595 1.5339643 0 .3067929 0 .7669822-.150633 1.0737751-6.62785 11.0445434-25.908871 29.4521161-42.327864 31.4462691-9.339245 1.227172-13.105069-1.994153-13.858234-7.363029-1.807595-14.7260575 21.239249-46.3257233 25.155706-51.6945986 3.01266-3.9883073 32.084823-45.40534498 34.94685-48.78006656 0 0 2.259494-3.37472159 6.175951-3.8349109 5.272154-.15339644 12.803803-.15339644 18.075957 1.22717149.903798.15339643 1.355697.92037861 1.50633 1.68736079.150633 1.07377505-.150633 2.30094654-.753165 3.06792872-6.627851 9.20378616-28.318999 38.50250536-37.206344 52.61497746-3.916457 6.4426503-15.364563 22.856069-14.611398 29.6055121z"/><path d="m281.765812 71.2477677s.453181-.4510115 1.208484-.6013486c.906364-.1503372 1.661667.7516858 1.812727 1.5033716 0 .3006743 0 .7516858-.15106 1.0523601-6.646666 10.8242755-23.414392 28.5640602-39.879996 30.5184432-13.595453 1.653709-20.54424-4.2094403-21.601665-12.9289955-2.114848-17.2887734 17.674089-45.7024966 49.245753-49.6112627 8.006211-.902023 11.933787 1.6537087 12.538029 6.0134864 1.057424 8.7195552-11.480605 24.3546198-33.686512 33.5251866 1.661667 2.856406 5.287121 4.5101147 11.782726 3.7584289 6.193485-.7516857 13.293332-5.5624749 18.731514-13.22967zm-19.335756-21.9492253c-3.776515.4510115-13.746514 17.1384362-12.538029 27.5117002l.151061 1.0523601c9.063635-6.3141607 15.710301-20.2955165 15.106059-26.0083286-.302122-1.8040459-1.057425-2.7060689-2.719091-2.5557317z"/><path d="m206 151.830846v6.169154h-17.843478v-5.089552c0-2.159204.313043-3.084577 1.408695-4.626866l9.547826-12.029851c.156522-.154229.156522-.154229.156522-.462686v-2.313433c0-.154229 0-.154229-.156522-.154229h-4.226086c-.156522 0-.156522 0-.156522.154229v3.547264h-6.730435v-5.39801c0-2.77612 1.878261-4.626866 4.695652-4.626866h8.452174c2.817391 0 4.695652 1.850746 4.695652 4.626866v3.084577c0 2.159204-.313043 3.084577-1.408695 4.626865l-9.547826 12.029851c-.156522.154229-.156522.154229-.156522.308458v.154229z"/><path d="m223.263158 158h-8.526316c-2.842105 0-4.736842-1.86-4.736842-4.65v-21.7c0-2.79 1.894737-4.65 4.736842-4.65h8.526316c2.842105 0 4.736842 1.86 4.736842 4.65v21.7c0 2.79-1.894737 4.65-4.736842 4.65zm-6.473684-6.2h4.263158c.157894 0 .157894 0 .157894-.155v-18.29c0-.155 0-.155-.157894-.155h-4.263158c-.157895 0-.157895 0-.157895.155l.157895 18.445c-.157895 0 0 0 0 0z"/><path d="m249 151.830846v6.169154h-18v-5.089552c0-2.159204.313043-3.084577 1.408696-4.626866l9.547826-12.029851c.156521-.154229.156521-.154229.156521-.462686v-2.313433c0-.154229 0-.154229-.156521-.154229h-4.226087c-.156522 0-.156522 0-.156522.154229v3.547264h-6.573913v-5.39801c0-2.77612 1.878261-4.626866 4.695652-4.626866h8.452174c2.817391 0 4.695652 1.850746 4.695652 4.626866v3.084577c0 2.159204-.313043 3.084577-1.408695 4.626865l-9.547826 12.029851c-.156522.154229-.156522.154229-.156522.308458v.154229z"/><path d="m267.25688 158h-8.52228c-2.84076 0-4.7346-1.86-4.7346-4.65v-21.7c0-2.79 1.89384-4.65 4.7346-4.65h8.52228c2.84076 0 4.7346 1.86 4.7346 4.65v21.7c.15782 2.79-1.89384 4.65-4.7346 4.65zm-6.3128-6.2h4.26114c.15782 0 .15782 0 .15782-.155v-18.29c0-.155 0-.155-.15782-.155h-4.26114c-.15782 0-.15782 0-.15782.155l.15782 18.445c-.15782 0-.15782 0 0 0z"/></g></g></svg>
